<?xml version="1.0" standalone="no"?>
<!DOCTYPE svg PUBLIC "-//W3C//DTD SVG 20010904//EN"
 "http://www.w3.org/TR/2001/REC-SVG-20010904/DTD/svg10.dtd">
<svg version="1.0" xmlns="http://www.w3.org/2000/svg"
 width="255.000000pt" height="238.000000pt" viewBox="0 0 255.000000 238.000000"
 preserveAspectRatio="xMidYMid meet">
<metadata>
Created by potrace 1.13, written by Peter Selinger 2001-2015
</metadata>
<g transform="translate(0.000000,238.000000) scale(0.100000,-0.100000)"
fill="#000000" stroke="none">
<path d="M1021 2313 c-34 -7 -66 -29 -88 -61 -16 -24 -18 -59 -23 -352 l-5
-325 -320 -5 c-355 -6 -365 -7 -405 -73 -19 -30 -20 -52 -20 -324 l0 -292 31
-36 c18 -20 41 -41 53 -47 14 -8 118 -11 331 -9 170 1 315 -2 322 -7 9 -6 13
-93 15 -334 l3 -327 33 -34 c18 -19 50 -39 71 -46 52 -15 516 -15 562 0 47 16
87 56 99 98 6 20 10 170 10 337 0 266 2 303 16 308 9 3 155 6 326 6 l311 0 34
26 c62 47 63 54 63 360 0 266 -1 278 -22 315 -14 25 -37 46 -63 59 -39 19 -62
20 -353 20 l-312 0 0 310 c0 254 -3 317 -15 347 -19 45 -47 70 -94 83 -35 10
-511 12 -560 3z"/>
</g>
</svg>
